<svg width="223" height="80" viewBox="0 0 223 80" fill="none" xmlns="http://www.w3.org/2000/svg">
<path d="M38.3974 27.679C26.6013 40.9024 18.956 57.2923 16.413 74.8305L15.7732 79.1946L18.3654 79.572L19.0052 75.2079C21.4826 58.1782 28.9146 42.2641 40.3662 29.4344L38.3974 27.679ZM55.1318 76.7501H59.0693V79.3751H55.1318V76.7501Z" fill="#2C7BE5"/>
<path d="M74.8192 34.75H69.5692V20.3125C69.5692 17.4086 67.2231 15.0625 64.3192 15.0625C62.3176 15.0625 60.4801 16.2109 59.5942 18.0156C58.577 17.0641 57.4942 16.1617 56.3622 15.3414C60.2012 12.7164 64.2208 10.4031 68.4208 8.41797L66.3864 12.4867L68.7325 13.668L73.1458 4.85781L64.3356 0.460938L63.1544 2.80703L68.5192 5.49766C63.4497 7.81094 58.5934 10.5836 54.0325 13.7828C52.4247 12.7984 50.7512 11.9289 49.0122 11.207C51.2762 8.64766 52.5231 5.35 52.5067 1.9375V0.625H51.1942C47.4864 0.608594 43.9262 2.08516 41.3012 4.72656L39.07 6.95781L28.3567 2.67578C26.8965 2.08516 25.2231 2.42969 24.1075 3.54531L20.17 7.48281L24.8786 10.0914C6.19185 15.9484 -4.22612 35.8328 1.63092 54.5195C3.66529 61.0328 7.55357 66.8242 12.8036 71.1883L14.477 69.1703C12.5083 67.5297 10.7364 65.6594 9.1942 63.625H9.42389C12.1965 63.625 14.4442 61.3773 14.4442 58.6047C14.4442 57.9648 14.6903 57.3578 15.1497 56.9148L18.2176 53.8469C19.1692 52.9117 19.6942 51.632 19.6942 50.2867V49.4172C19.6942 48.0883 19.1692 46.8086 18.2176 45.857L16.6754 44.3148C14.7067 42.3625 11.5403 42.3625 9.57154 44.3148L9.34185 44.5445C8.89888 45.0039 8.27545 45.25 7.65201 45.25H2.66451C2.6481 44.807 2.6317 44.3805 2.6317 43.9375C2.6317 42.625 2.71373 41.3125 2.87779 40H7.71763C9.9817 40 11.8192 38.1625 11.8192 35.8984C11.8192 34.8156 11.3926 33.7656 10.6215 32.9945L6.37232 28.7453C10.8184 20.2141 18.7919 14.0617 28.1762 11.9289L31.9825 14.0453L23.6317 22.3961V26.2516L18.07 24.0203L12.1145 29.9758L20.0059 33.1258L23.1559 41.0172L29.1114 35.0617L26.8801 29.5H30.7356L39.07 21.1656L45.6325 32.9781L49.57 29.0406C50.6856 27.925 51.0301 26.2516 50.4395 24.7914L46.1575 14.0781L46.9942 13.2414C48.6184 13.8484 50.1934 14.6031 51.7028 15.4563C51.1778 15.85 50.6528 16.2602 50.1278 16.6703L51.752 18.7375C52.5231 18.1305 53.2942 17.5398 54.0981 16.9656C55.8864 18.2125 57.5598 19.6234 59.0692 21.182V34.75H53.8192C51.6536 34.75 49.8817 36.5219 49.8817 38.6875V70.1875C49.8817 71.1883 50.259 72.1398 50.9317 72.8617C49.3239 73.7149 47.6669 74.4367 45.9442 75.0274V73.8953C45.9442 72.8453 45.534 71.8445 44.7958 71.1063L42.384 68.7109C42.1379 68.4649 42.0067 68.1367 42.0067 67.7758V66.25C42.0067 65.5281 42.5973 64.9375 43.3192 64.9375C45.4848 64.9375 47.2567 63.1656 47.2567 61V57.0625C47.2567 54.8969 45.4848 53.125 43.3192 53.125H40.4645C39.4145 53.125 38.4137 53.5352 37.6754 54.2734L31.3426 60.6227C31.0965 60.8688 30.7684 61 30.4075 61H28.8817C26.7161 61 24.9442 62.7719 24.9442 64.9375V67.7922C24.9442 68.8422 25.3544 69.843 26.0926 70.5813L27.1754 71.6641C27.4215 71.9102 27.5528 72.2383 27.5528 72.5992V75.8148C25.9286 75.4211 24.3536 74.8961 22.8114 74.2563L21.7942 76.6844C32.327 81.032 44.3036 80.0805 54.0161 74.125H74.8192C76.9848 74.125 78.7567 72.3531 78.7567 70.1875V38.6875C78.7567 36.5219 76.9848 34.75 74.8192 34.75ZM7.65201 47.875C8.98092 47.875 10.2606 47.35 11.2122 46.3984L11.4419 46.1688C12.377 45.2336 13.9028 45.2336 14.8379 46.1688L16.3801 47.7109C16.8395 48.1539 17.0856 48.7773 17.0856 49.4008V50.2703C17.0856 50.9102 16.8395 51.5172 16.3801 51.9602L13.2958 55.0445C12.3442 55.9797 11.8192 57.2594 11.8192 58.6047C11.8192 59.9336 10.7364 61 9.42389 61H7.40592C4.97779 56.9969 3.4192 52.518 2.86138 47.875H7.65201ZM8.76764 34.8648C9.34185 35.4391 9.34185 36.3742 8.76764 36.9484C8.48873 37.2273 8.11138 37.375 7.73404 37.375H3.28795C3.71451 35.2914 4.33795 33.2406 5.17467 31.2719L8.76764 34.8648ZM24.1075 36.3578L22.0075 31.1242L16.7739 29.0242L18.6934 27.1047L23.927 29.2047L26.027 34.4383L24.1075 36.3578ZM46.5512 9.97656L43.0895 13.4383L48.0114 25.7594C48.2083 26.2516 48.0934 26.8094 47.7161 27.1703L46.2395 28.6469L39.677 16.8344L29.6528 26.875H26.2567V23.4789L36.2973 13.4383L28.652 9.18906L28.6356 9.13984C28.6192 9.13984 28.6028 9.13984 28.5864 9.15625L24.4848 6.87578L25.9614 5.39922C26.3387 5.02188 26.8965 4.90703 27.3723 5.10391L39.6934 10.0258L43.1551 6.58047C44.9434 4.79219 47.2731 3.64375 49.7997 3.33203C49.4879 5.84219 48.3559 8.18828 46.5512 9.97656ZM43.3192 75.7984C39.0208 76.8484 34.5583 77.0289 30.1942 76.3399V72.5992C30.1942 71.5492 29.784 70.5484 29.0458 69.8102L27.9629 68.7273C27.7169 68.4813 27.5856 68.1531 27.5856 67.7922V64.9375C27.5856 64.2156 28.1762 63.625 28.8981 63.625H30.4403C31.4903 63.625 32.4911 63.2148 33.2294 62.4766L39.5622 56.1438C39.8083 55.8977 40.1364 55.7664 40.4973 55.7664H43.3192C44.0411 55.7664 44.6317 56.357 44.6317 57.0789V61.0164C44.6317 61.7383 44.0411 62.3289 43.3192 62.3289C41.1536 62.3289 39.3817 64.1008 39.3817 66.2664V67.8086C39.3817 68.8586 39.7919 69.8594 40.5301 70.5977L42.9254 72.993C43.1715 73.2391 43.3028 73.5672 43.3028 73.9281V75.7984H43.3192ZM61.6942 20.3125C61.6942 18.8688 62.8755 17.6875 64.3192 17.6875C65.7629 17.6875 66.9442 18.8688 66.9442 20.3125V34.75H61.6942V20.3125ZM76.1317 70.1875C76.1317 70.9094 75.5411 71.5 74.8192 71.5H53.8192C53.0973 71.5 52.5067 70.9094 52.5067 70.1875V38.6875C52.5067 37.9656 53.0973 37.375 53.8192 37.375H74.8192C75.5411 37.375 76.1317 37.9656 76.1317 38.6875V70.1875ZM70.8817 76.75H74.8192V79.375H70.8817V76.75Z" fill="#2C7BE5"/>
<path d="M56.4442 40H59.0692V68.875H56.4442V40ZM63.0067 40H65.6317V68.875H63.0067V40ZM69.5692 40H72.1942V68.875H69.5692V40ZM36.7567 41.3125V42.0836L33.5903 45.25C33.0981 45.7422 32.8192 46.4148 32.8192 47.1039V47.875C32.8192 49.3188 34.0005 50.5 35.4442 50.5H38.8403C39.5294 50.5 40.202 50.2211 40.6942 49.7289L42.5481 47.875H44.6317C46.0755 47.875 47.2567 46.6938 47.2567 45.25V41.3125C47.2567 39.8687 46.0755 38.6875 44.6317 38.6875H39.3817C37.938 38.6875 36.7567 39.8687 36.7567 41.3125ZM39.3817 42.0836V41.3125H44.6317V45.25H42.5481C41.8591 45.25 41.1864 45.5289 40.6942 46.0211L38.8403 47.875H35.4442V47.1039L38.6106 43.9375C39.1028 43.4453 39.3817 42.7727 39.3817 42.0836Z" fill="#2C7BE5"/>
<path d="M109.686 35.222C109.788 35.2313 109.905 35.2407 110.036 35.25C110.176 35.25 110.339 35.25 110.526 35.25C111.618 35.25 112.425 34.9747 112.948 34.424C113.48 33.8733 113.746 33.1127 113.746 32.142C113.746 31.1247 113.494 30.3547 112.99 29.832C112.486 29.3093 111.688 29.048 110.596 29.048C110.446 29.048 110.292 29.0527 110.134 29.062C109.975 29.062 109.826 29.0713 109.686 29.09V35.222ZM116 32.142C116 32.982 115.869 33.7147 115.608 34.34C115.346 34.9653 114.973 35.4833 114.488 35.894C114.012 36.3047 113.428 36.6127 112.738 36.818C112.047 37.0233 111.272 37.126 110.414 37.126C110.022 37.126 109.564 37.1073 109.042 37.07C108.519 37.042 108.006 36.9767 107.502 36.874V27.424C108.006 27.3307 108.528 27.27 109.07 27.242C109.62 27.2047 110.092 27.186 110.484 27.186C111.314 27.186 112.066 27.2793 112.738 27.466C113.419 27.6527 114.002 27.9467 114.488 28.348C114.973 28.7493 115.346 29.2627 115.608 29.888C115.869 30.5133 116 31.2647 116 32.142ZM124.692 27.298V29.16H121.766V37H119.582V29.16H116.656V27.298H124.692ZM136.655 27.298V29.16H133.729V37H131.545V29.16H128.619V27.298H136.655ZM139.564 32.142C139.564 32.618 139.62 33.0473 139.732 33.43C139.854 33.8127 140.022 34.144 140.236 34.424C140.46 34.6947 140.731 34.9047 141.048 35.054C141.366 35.2033 141.73 35.278 142.14 35.278C142.542 35.278 142.901 35.2033 143.218 35.054C143.545 34.9047 143.816 34.6947 144.03 34.424C144.254 34.144 144.422 33.8127 144.534 33.43C144.656 33.0473 144.716 32.618 144.716 32.142C144.716 31.666 144.656 31.2367 144.534 30.854C144.422 30.462 144.254 30.1307 144.03 29.86C143.816 29.58 143.545 29.3653 143.218 29.216C142.901 29.0667 142.542 28.992 142.14 28.992C141.73 28.992 141.366 29.0713 141.048 29.23C140.731 29.3793 140.46 29.594 140.236 29.874C140.022 30.1447 139.854 30.476 139.732 30.868C139.62 31.2507 139.564 31.6753 139.564 32.142ZM146.97 32.142C146.97 32.9727 146.844 33.7053 146.592 34.34C146.35 34.9653 146.014 35.4927 145.584 35.922C145.155 36.342 144.642 36.6593 144.044 36.874C143.456 37.0887 142.822 37.196 142.14 37.196C141.478 37.196 140.852 37.0887 140.264 36.874C139.676 36.6593 139.163 36.342 138.724 35.922C138.286 35.4927 137.94 34.9653 137.688 34.34C137.436 33.7053 137.31 32.9727 137.31 32.142C137.31 31.3113 137.441 30.5833 137.702 29.958C137.964 29.3233 138.314 28.7913 138.752 28.362C139.2 27.9327 139.714 27.6107 140.292 27.396C140.88 27.1813 141.496 27.074 142.14 27.074C142.803 27.074 143.428 27.1813 144.016 27.396C144.604 27.6107 145.118 27.9327 145.556 28.362C145.995 28.7913 146.34 29.3233 146.592 29.958C146.844 30.5833 146.97 31.3113 146.97 32.142ZM152.585 37.196C151.903 37.196 151.315 37.1027 150.821 36.916C150.326 36.72 149.915 36.454 149.589 36.118C149.271 35.7727 149.033 35.3667 148.875 34.9C148.725 34.424 148.651 33.9013 148.651 33.332V27.298H150.835V33.15C150.835 33.542 150.877 33.878 150.961 34.158C151.054 34.4287 151.175 34.6527 151.325 34.83C151.483 34.998 151.67 35.1193 151.885 35.194C152.109 35.2687 152.351 35.306 152.613 35.306C153.145 35.306 153.574 35.1427 153.901 34.816C154.237 34.4893 154.405 33.934 154.405 33.15V27.298H156.589V33.332C156.589 33.9013 156.509 34.424 156.351 34.9C156.192 35.376 155.949 35.7867 155.623 36.132C155.296 36.468 154.881 36.7293 154.377 36.916C153.873 37.1027 153.275 37.196 152.585 37.196ZM161.531 27.186C162.987 27.186 164.103 27.4473 164.877 27.97C165.652 28.4833 166.039 29.286 166.039 30.378C166.039 31.0593 165.881 31.6147 165.563 32.044C165.255 32.464 164.807 32.7953 164.219 33.038C164.415 33.2807 164.621 33.5607 164.835 33.878C165.05 34.186 165.26 34.5127 165.465 34.858C165.68 35.194 165.885 35.5487 166.081 35.922C166.277 36.286 166.459 36.6453 166.627 37H164.177C164 36.6827 163.818 36.3607 163.631 36.034C163.454 35.7073 163.267 35.39 163.071 35.082C162.885 34.774 162.698 34.4847 162.511 34.214C162.325 33.934 162.138 33.682 161.951 33.458H160.873V37H158.689V27.438C159.165 27.3447 159.655 27.2793 160.159 27.242C160.673 27.2047 161.13 27.186 161.531 27.186ZM161.657 29.048C161.499 29.048 161.354 29.0527 161.223 29.062C161.102 29.0713 160.985 29.0807 160.873 29.09V31.722H161.489C162.311 31.722 162.899 31.6193 163.253 31.414C163.608 31.2087 163.785 30.8587 163.785 30.364C163.785 29.888 163.603 29.552 163.239 29.356C162.885 29.1507 162.357 29.048 161.657 29.048Z" fill="#12263F"/>
<path d="M108.458 49.036C108.594 48.948 108.798 48.856 109.07 48.76C109.35 48.664 109.67 48.616 110.03 48.616C110.478 48.616 110.874 48.696 111.218 48.856C111.57 49.016 111.866 49.24 112.106 49.528C112.346 49.816 112.526 50.16 112.646 50.56C112.774 50.96 112.838 51.4 112.838 51.88C112.838 52.384 112.762 52.84 112.61 53.248C112.466 53.648 112.258 53.988 111.986 54.268C111.714 54.548 111.386 54.764 111.002 54.916C110.618 55.068 110.186 55.144 109.706 55.144C109.186 55.144 108.726 55.108 108.326 55.036C107.926 54.964 107.598 54.892 107.342 54.82V45.88L108.458 45.688V49.036ZM108.458 54.028C108.57 54.06 108.726 54.092 108.926 54.124C109.134 54.148 109.39 54.16 109.694 54.16C110.294 54.16 110.774 53.964 111.134 53.572C111.494 53.172 111.674 52.608 111.674 51.88C111.674 51.56 111.642 51.26 111.578 50.98C111.514 50.7 111.41 50.46 111.266 50.26C111.122 50.052 110.934 49.892 110.702 49.78C110.478 49.66 110.206 49.6 109.886 49.6C109.582 49.6 109.302 49.652 109.046 49.756C108.79 49.86 108.594 49.968 108.458 50.08V54.028ZM114.06 51.892C114.06 51.34 114.14 50.86 114.3 50.452C114.46 50.036 114.672 49.692 114.936 49.42C115.2 49.148 115.504 48.944 115.848 48.808C116.192 48.672 116.544 48.604 116.904 48.604C117.744 48.604 118.388 48.868 118.836 49.396C119.284 49.916 119.508 50.712 119.508 51.784C119.508 51.832 119.508 51.896 119.508 51.976C119.508 52.048 119.504 52.116 119.496 52.18H115.224C115.272 52.828 115.46 53.32 115.788 53.656C116.116 53.992 116.628 54.16 117.324 54.16C117.716 54.16 118.044 54.128 118.308 54.064C118.58 53.992 118.784 53.924 118.92 53.86L119.076 54.796C118.94 54.868 118.7 54.944 118.356 55.024C118.02 55.104 117.636 55.144 117.204 55.144C116.66 55.144 116.188 55.064 115.788 54.904C115.396 54.736 115.072 54.508 114.816 54.22C114.56 53.932 114.368 53.592 114.24 53.2C114.12 52.8 114.06 52.364 114.06 51.892ZM118.344 51.28C118.352 50.776 118.224 50.364 117.96 50.044C117.704 49.716 117.348 49.552 116.892 49.552C116.636 49.552 116.408 49.604 116.208 49.708C116.016 49.804 115.852 49.932 115.716 50.092C115.58 50.252 115.472 50.436 115.392 50.644C115.32 50.852 115.272 51.064 115.248 51.28H118.344ZM122.155 48.76H124.519V49.696H122.155V52.576C122.155 52.888 122.179 53.148 122.227 53.356C122.275 53.556 122.347 53.716 122.443 53.836C122.539 53.948 122.659 54.028 122.803 54.076C122.947 54.124 123.115 54.148 123.307 54.148C123.643 54.148 123.911 54.112 124.111 54.04C124.319 53.96 124.463 53.904 124.543 53.872L124.759 54.796C124.647 54.852 124.451 54.92 124.171 55C123.891 55.088 123.571 55.132 123.211 55.132C122.787 55.132 122.435 55.08 122.155 54.976C121.883 54.864 121.663 54.7 121.495 54.484C121.327 54.268 121.207 54.004 121.135 53.692C121.071 53.372 121.039 53.004 121.039 52.588V47.02L122.155 46.828V48.76ZM128.051 54.196C128.315 54.196 128.547 54.192 128.747 54.184C128.955 54.168 129.127 54.144 129.263 54.112V52.252C129.183 52.212 129.051 52.18 128.867 52.156C128.691 52.124 128.475 52.108 128.219 52.108C128.051 52.108 127.871 52.12 127.679 52.144C127.495 52.168 127.323 52.22 127.163 52.3C127.011 52.372 126.883 52.476 126.779 52.612C126.675 52.74 126.623 52.912 126.623 53.128C126.623 53.528 126.751 53.808 127.007 53.968C127.263 54.12 127.611 54.196 128.051 54.196ZM127.955 48.604C128.403 48.604 128.779 48.664 129.083 48.784C129.395 48.896 129.643 49.06 129.827 49.276C130.019 49.484 130.155 49.736 130.235 50.032C130.315 50.32 130.355 50.64 130.355 50.992V54.892C130.259 54.908 130.123 54.932 129.947 54.964C129.779 54.988 129.587 55.012 129.371 55.036C129.155 55.06 128.919 55.08 128.663 55.096C128.415 55.12 128.167 55.132 127.919 55.132C127.567 55.132 127.243 55.096 126.947 55.024C126.651 54.952 126.395 54.84 126.179 54.688C125.963 54.528 125.795 54.32 125.675 54.064C125.555 53.808 125.495 53.5 125.495 53.14C125.495 52.796 125.563 52.5 125.699 52.252C125.843 52.004 126.035 51.804 126.275 51.652C126.515 51.5 126.795 51.388 127.115 51.316C127.435 51.244 127.771 51.208 128.123 51.208C128.235 51.208 128.351 51.216 128.471 51.232C128.591 51.24 128.703 51.256 128.807 51.28C128.919 51.296 129.015 51.312 129.095 51.328C129.175 51.344 129.231 51.356 129.263 51.364V51.052C129.263 50.868 129.243 50.688 129.203 50.512C129.163 50.328 129.091 50.168 128.987 50.032C128.883 49.888 128.739 49.776 128.555 49.696C128.379 49.608 128.147 49.564 127.859 49.564C127.491 49.564 127.167 49.592 126.887 49.648C126.615 49.696 126.411 49.748 126.275 49.804L126.143 48.88C126.287 48.816 126.527 48.756 126.863 48.7C127.199 48.636 127.563 48.604 127.955 48.604ZM134.626 50.836C134.626 49.444 134.87 48.372 135.358 47.62C135.854 46.868 136.538 46.492 137.41 46.492C138.282 46.492 138.962 46.868 139.45 47.62C139.946 48.372 140.194 49.444 140.194 50.836C140.194 52.228 139.946 53.3 139.45 54.052C138.962 54.804 138.282 55.18 137.41 55.18C136.538 55.18 135.854 54.804 135.358 54.052C134.87 53.3 134.626 52.228 134.626 50.836ZM139.018 50.836C139.018 50.38 138.99 49.948 138.934 49.54C138.886 49.132 138.798 48.776 138.67 48.472C138.55 48.168 138.386 47.928 138.178 47.752C137.97 47.568 137.714 47.476 137.41 47.476C137.106 47.476 136.85 47.568 136.642 47.752C136.434 47.928 136.266 48.168 136.138 48.472C136.018 48.776 135.93 49.132 135.874 49.54C135.826 49.948 135.802 50.38 135.802 50.836C135.802 51.292 135.826 51.724 135.874 52.132C135.93 52.54 136.018 52.896 136.138 53.2C136.266 53.504 136.434 53.748 136.642 53.932C136.85 54.108 137.106 54.196 137.41 54.196C137.714 54.196 137.97 54.108 138.178 53.932C138.386 53.748 138.55 53.504 138.67 53.2C138.798 52.896 138.886 52.54 138.934 52.132C138.99 51.724 139.018 51.292 139.018 50.836ZM143.08 54.352C143.08 54.568 143.008 54.756 142.864 54.916C142.72 55.076 142.524 55.156 142.276 55.156C142.028 55.156 141.832 55.076 141.688 54.916C141.544 54.756 141.472 54.568 141.472 54.352C141.472 54.136 141.544 53.948 141.688 53.788C141.832 53.628 142.028 53.548 142.276 53.548C142.524 53.548 142.72 53.628 142.864 53.788C143.008 53.948 143.08 54.136 143.08 54.352ZM144.353 50.836C144.353 49.444 144.597 48.372 145.085 47.62C145.581 46.868 146.265 46.492 147.137 46.492C148.009 46.492 148.689 46.868 149.177 47.62C149.673 48.372 149.921 49.444 149.921 50.836C149.921 52.228 149.673 53.3 149.177 54.052C148.689 54.804 148.009 55.18 147.137 55.18C146.265 55.18 145.581 54.804 145.085 54.052C144.597 53.3 144.353 52.228 144.353 50.836ZM148.745 50.836C148.745 50.38 148.717 49.948 148.661 49.54C148.613 49.132 148.525 48.776 148.397 48.472C148.277 48.168 148.113 47.928 147.905 47.752C147.697 47.568 147.441 47.476 147.137 47.476C146.833 47.476 146.577 47.568 146.369 47.752C146.161 47.928 145.993 48.168 145.865 48.472C145.745 48.776 145.657 49.132 145.601 49.54C145.553 49.948 145.529 50.38 145.529 50.836C145.529 51.292 145.553 51.724 145.601 52.132C145.657 52.54 145.745 52.896 145.865 53.2C145.993 53.504 146.161 53.748 146.369 53.932C146.577 54.108 146.833 54.196 147.137 54.196C147.441 54.196 147.697 54.108 147.905 53.932C148.113 53.748 148.277 53.504 148.397 53.2C148.525 52.896 148.613 52.54 148.661 52.132C148.717 51.724 148.745 51.292 148.745 50.836ZM152.806 54.352C152.806 54.568 152.734 54.756 152.59 54.916C152.446 55.076 152.25 55.156 152.002 55.156C151.754 55.156 151.558 55.076 151.414 54.916C151.27 54.756 151.198 54.568 151.198 54.352C151.198 54.136 151.27 53.948 151.414 53.788C151.558 53.628 151.754 53.548 152.002 53.548C152.25 53.548 152.446 53.628 152.59 53.788C152.734 53.948 152.806 54.136 152.806 54.352ZM154.595 48.4C155.051 48.224 155.495 48 155.927 47.728C156.359 47.448 156.755 47.1 157.115 46.684H157.907V55H156.791V48.232C156.695 48.32 156.575 48.412 156.431 48.508C156.295 48.604 156.143 48.696 155.975 48.784C155.815 48.872 155.643 48.956 155.459 49.036C155.283 49.116 155.111 49.184 154.943 49.24L154.595 48.4Z" fill="#95AAC9"/>
</svg>
