<svg width="51" height="11" viewBox="0 0 51 11" fill="none" xmlns="http://www.w3.org/2000/svg">
<path d="M1.45771 4.036C1.59371 3.948 1.79771 3.856 2.06971 3.76C2.34971 3.664 2.66971 3.616 3.02971 3.616C3.47771 3.616 3.87371 3.696 4.21771 3.856C4.56971 4.016 4.86571 4.24 5.10571 4.528C5.34571 4.816 5.52571 5.16 5.64571 5.56C5.77371 5.96 5.83771 6.4 5.83771 6.88C5.83771 7.384 5.76171 7.84 5.60971 8.248C5.46571 8.648 5.25771 8.988 4.98571 9.268C4.71371 9.548 4.38571 9.764 4.00171 9.916C3.61771 10.068 3.18571 10.144 2.70571 10.144C2.18571 10.144 1.72571 10.108 1.32571 10.036C0.925714 9.964 0.597714 9.892 0.341714 9.82V0.879999L1.45771 0.688V4.036ZM1.45771 9.028C1.56971 9.06 1.72571 9.092 1.92571 9.124C2.13371 9.148 2.38971 9.16 2.69371 9.16C3.29371 9.16 3.77371 8.964 4.13371 8.572C4.49371 8.172 4.67371 7.608 4.67371 6.88C4.67371 6.56 4.64171 6.26 4.57771 5.98C4.51371 5.7 4.40971 5.46 4.26571 5.26C4.12171 5.052 3.93371 4.892 3.70171 4.78C3.47771 4.66 3.20571 4.6 2.88571 4.6C2.58171 4.6 2.30171 4.652 2.04571 4.756C1.78971 4.86 1.59371 4.968 1.45771 5.08V9.028ZM7.06012 6.892C7.06012 6.34 7.14012 5.86 7.30012 5.452C7.46012 5.036 7.67212 4.692 7.93612 4.42C8.20012 4.148 8.50412 3.944 8.84812 3.808C9.19212 3.672 9.54412 3.604 9.90412 3.604C10.7441 3.604 11.3881 3.868 11.8361 4.396C12.2841 4.916 12.5081 5.712 12.5081 6.784C12.5081 6.832 12.5081 6.896 12.5081 6.976C12.5081 7.048 12.5041 7.116 12.4961 7.18H8.22412C8.27212 7.828 8.46012 8.32 8.78812 8.656C9.11612 8.992 9.62812 9.16 10.3241 9.16C10.7161 9.16 11.0441 9.128 11.3081 9.064C11.5801 8.992 11.7841 8.924 11.9201 8.86L12.0761 9.796C11.9401 9.868 11.7001 9.944 11.3561 10.024C11.0201 10.104 10.6361 10.144 10.2041 10.144C9.66012 10.144 9.18812 10.064 8.78812 9.904C8.39612 9.736 8.07212 9.508 7.81612 9.22C7.56012 8.932 7.36812 8.592 7.24012 8.2C7.12012 7.8 7.06012 7.364 7.06012 6.892ZM11.3441 6.28C11.3521 5.776 11.2241 5.364 10.9601 5.044C10.7041 4.716 10.3481 4.552 9.89212 4.552C9.63612 4.552 9.40812 4.604 9.20812 4.708C9.01612 4.804 8.85212 4.932 8.71612 5.092C8.58012 5.252 8.47212 5.436 8.39212 5.644C8.32012 5.852 8.27212 6.064 8.24812 6.28H11.3441ZM15.1552 3.76H17.5192V4.696H15.1552V7.576C15.1552 7.888 15.1792 8.148 15.2272 8.356C15.2752 8.556 15.3472 8.716 15.4432 8.836C15.5392 8.948 15.6592 9.028 15.8032 9.076C15.9472 9.124 16.1152 9.148 16.3072 9.148C16.6432 9.148 16.9112 9.112 17.1112 9.04C17.3192 8.96 17.4632 8.904 17.5432 8.872L17.7592 9.796C17.6472 9.852 17.4512 9.92 17.1712 10C16.8912 10.088 16.5712 10.132 16.2112 10.132C15.7872 10.132 15.4352 10.08 15.1552 9.976C14.8832 9.864 14.6632 9.7 14.4952 9.484C14.3272 9.268 14.2072 9.004 14.1352 8.692C14.0712 8.372 14.0392 8.004 14.0392 7.588V2.02L15.1552 1.828V3.76ZM21.0514 9.196C21.3154 9.196 21.5474 9.192 21.7474 9.184C21.9554 9.168 22.1274 9.144 22.2634 9.112V7.252C22.1834 7.212 22.0514 7.18 21.8674 7.156C21.6914 7.124 21.4754 7.108 21.2194 7.108C21.0514 7.108 20.8714 7.12 20.6794 7.144C20.4954 7.168 20.3234 7.22 20.1634 7.3C20.0114 7.372 19.8834 7.476 19.7794 7.612C19.6754 7.74 19.6234 7.912 19.6234 8.128C19.6234 8.528 19.7514 8.808 20.0074 8.968C20.2634 9.12 20.6114 9.196 21.0514 9.196ZM20.9554 3.604C21.4034 3.604 21.7794 3.664 22.0834 3.784C22.3954 3.896 22.6434 4.06 22.8274 4.276C23.0194 4.484 23.1554 4.736 23.2354 5.032C23.3154 5.32 23.3554 5.64 23.3554 5.992V9.892C23.2594 9.908 23.1234 9.932 22.9474 9.964C22.7794 9.988 22.5874 10.012 22.3714 10.036C22.1554 10.06 21.9194 10.08 21.6634 10.096C21.4154 10.12 21.1674 10.132 20.9194 10.132C20.5674 10.132 20.2434 10.096 19.9474 10.024C19.6514 9.952 19.3954 9.84 19.1794 9.688C18.9634 9.528 18.7954 9.32 18.6754 9.064C18.5554 8.808 18.4954 8.5 18.4954 8.14C18.4954 7.796 18.5634 7.5 18.6994 7.252C18.8434 7.004 19.0354 6.804 19.2754 6.652C19.5154 6.5 19.7954 6.388 20.1154 6.316C20.4354 6.244 20.7714 6.208 21.1234 6.208C21.2354 6.208 21.3514 6.216 21.4714 6.232C21.5914 6.24 21.7034 6.256 21.8074 6.28C21.9194 6.296 22.0154 6.312 22.0954 6.328C22.1754 6.344 22.2314 6.356 22.2634 6.364V6.052C22.2634 5.868 22.2434 5.688 22.2034 5.512C22.1634 5.328 22.0914 5.168 21.9874 5.032C21.8834 4.888 21.7394 4.776 21.5554 4.696C21.3794 4.608 21.1474 4.564 20.8594 4.564C20.4914 4.564 20.1674 4.592 19.8874 4.648C19.6154 4.696 19.4114 4.748 19.2754 4.804L19.1434 3.88C19.2874 3.816 19.5274 3.756 19.8634 3.7C20.1994 3.636 20.5634 3.604 20.9554 3.604ZM27.6262 5.836C27.6262 4.444 27.8702 3.372 28.3582 2.62C28.8542 1.868 29.5382 1.492 30.4102 1.492C31.2822 1.492 31.9622 1.868 32.4502 2.62C32.9462 3.372 33.1942 4.444 33.1942 5.836C33.1942 7.228 32.9462 8.3 32.4502 9.052C31.9622 9.804 31.2822 10.18 30.4102 10.18C29.5382 10.18 28.8542 9.804 28.3582 9.052C27.8702 8.3 27.6262 7.228 27.6262 5.836ZM32.0182 5.836C32.0182 5.38 31.9902 4.948 31.9342 4.54C31.8862 4.132 31.7982 3.776 31.6702 3.472C31.5502 3.168 31.3862 2.928 31.1782 2.752C30.9702 2.568 30.7142 2.476 30.4102 2.476C30.1062 2.476 29.8502 2.568 29.6422 2.752C29.4342 2.928 29.2662 3.168 29.1382 3.472C29.0182 3.776 28.9302 4.132 28.8742 4.54C28.8262 4.948 28.8022 5.38 28.8022 5.836C28.8022 6.292 28.8262 6.724 28.8742 7.132C28.9302 7.54 29.0182 7.896 29.1382 8.2C29.2662 8.504 29.4342 8.748 29.6422 8.932C29.8502 9.108 30.1062 9.196 30.4102 9.196C30.7142 9.196 30.9702 9.108 31.1782 8.932C31.3862 8.748 31.5502 8.504 31.6702 8.2C31.7982 7.896 31.8862 7.54 31.9342 7.132C31.9902 6.724 32.0182 6.292 32.0182 5.836ZM36.0797 9.352C36.0797 9.568 36.0077 9.756 35.8637 9.916C35.7197 10.076 35.5237 10.156 35.2757 10.156C35.0277 10.156 34.8317 10.076 34.6877 9.916C34.5437 9.756 34.4717 9.568 34.4717 9.352C34.4717 9.136 34.5437 8.948 34.6877 8.788C34.8317 8.628 35.0277 8.548 35.2757 8.548C35.5237 8.548 35.7197 8.628 35.8637 8.788C36.0077 8.948 36.0797 9.136 36.0797 9.352ZM37.3528 5.836C37.3528 4.444 37.5968 3.372 38.0848 2.62C38.5808 1.868 39.2648 1.492 40.1368 1.492C41.0088 1.492 41.6888 1.868 42.1768 2.62C42.6728 3.372 42.9208 4.444 42.9208 5.836C42.9208 7.228 42.6728 8.3 42.1768 9.052C41.6888 9.804 41.0088 10.18 40.1368 10.18C39.2648 10.18 38.5808 9.804 38.0848 9.052C37.5968 8.3 37.3528 7.228 37.3528 5.836ZM41.7448 5.836C41.7448 5.38 41.7168 4.948 41.6608 4.54C41.6128 4.132 41.5248 3.776 41.3968 3.472C41.2768 3.168 41.1128 2.928 40.9048 2.752C40.6968 2.568 40.4408 2.476 40.1368 2.476C39.8328 2.476 39.5768 2.568 39.3688 2.752C39.1608 2.928 38.9928 3.168 38.8648 3.472C38.7448 3.776 38.6568 4.132 38.6008 4.54C38.5528 4.948 38.5288 5.38 38.5288 5.836C38.5288 6.292 38.5528 6.724 38.6008 7.132C38.6568 7.54 38.7448 7.896 38.8648 8.2C38.9928 8.504 39.1608 8.748 39.3688 8.932C39.5768 9.108 39.8328 9.196 40.1368 9.196C40.4408 9.196 40.6968 9.108 40.9048 8.932C41.1128 8.748 41.2768 8.504 41.3968 8.2C41.5248 7.896 41.6128 7.54 41.6608 7.132C41.7168 6.724 41.7448 6.292 41.7448 5.836ZM45.8062 9.352C45.8062 9.568 45.7342 9.756 45.5902 9.916C45.4462 10.076 45.2502 10.156 45.0022 10.156C44.7542 10.156 44.5582 10.076 44.4142 9.916C44.2702 9.756 44.1982 9.568 44.1982 9.352C44.1982 9.136 44.2702 8.948 44.4142 8.788C44.5582 8.628 44.7542 8.548 45.0022 8.548C45.2502 8.548 45.4462 8.628 45.5902 8.788C45.7342 8.948 45.8062 9.136 45.8062 9.352ZM47.5954 3.4C48.0514 3.224 48.4954 3 48.9274 2.728C49.3594 2.448 49.7554 2.1 50.1154 1.684H50.9074V10H49.7914V3.232C49.6954 3.32 49.5754 3.412 49.4314 3.508C49.2954 3.604 49.1434 3.696 48.9754 3.784C48.8154 3.872 48.6434 3.956 48.4594 4.036C48.2834 4.116 48.1114 4.184 47.9434 4.24L47.5954 3.4Z" fill="#95AAC9"/>
</svg>
