<svg width="208" height="200" viewBox="0 0 208 200" fill="none" xmlns="http://www.w3.org/2000/svg">
<path fill-rule="evenodd" clip-rule="evenodd" d="M107.505 199.999C163.007 199.999 208 155.442 208 100.478C208 45.5141 163.007 0.957031 107.505 0.957031C52.003 0.957031 7.00983 45.5141 7.00983 100.478C7.00983 155.442 52.003 199.999 107.505 199.999ZM107.504 182.766C153.395 182.766 190.598 145.925 190.598 100.478C190.598 55.0319 153.395 18.1903 107.504 18.1903C61.6131 18.1903 24.4109 55.0319 24.4109 100.478C24.4109 145.925 61.6131 182.766 107.504 182.766Z" fill="#2C7BE5"/>
<mask id="mask0" mask-type="alpha" maskUnits="userSpaceOnUse" x="-1" y="10" width="107" height="141">
<path d="M0 149.853L104.39 104.336L10.9064 11.7578L0 149.853Z" fill="#C4C4C4" stroke="black"/>
</mask>
<g mask="url(#mask0)">
<path fill-rule="evenodd" clip-rule="evenodd" d="M107.503 199.999C163.005 199.999 207.998 155.442 207.998 100.478C207.998 45.514 163.005 0.956909 107.503 0.956909C52.0011 0.956909 7.00793 45.514 7.00793 100.478C7.00793 155.442 52.0011 199.999 107.503 199.999ZM107.502 182.766C153.394 182.766 190.596 145.924 190.596 100.478C190.596 55.0317 153.394 18.1902 107.502 18.1902C61.6112 18.1902 24.409 55.0317 24.409 100.478C24.409 145.924 61.6112 182.766 107.502 182.766Z" fill="#B1C2D9"/>
</g>
<mask id="mask1" mask-type="alpha" maskUnits="userSpaceOnUse" x="9" y="-1" width="96" height="107">
<path d="M104.39 0V104.336L10.9062 11.7587L104.39 0Z" fill="#C4C4C4" stroke="black"/>
</mask>
<g mask="url(#mask1)">
<path fill-rule="evenodd" clip-rule="evenodd" d="M107.503 200C163.005 200 207.998 155.443 207.998 100.479C207.998 45.515 163.005 0.957886 107.503 0.957886C52.0011 0.957886 7.00793 45.515 7.00793 100.479C7.00793 155.443 52.0011 200 107.503 200ZM107.502 182.767C153.394 182.767 190.596 145.925 190.596 100.479C190.596 55.0327 153.394 18.1911 107.502 18.1911C61.6112 18.1911 24.409 55.0327 24.409 100.479C24.409 145.925 61.6112 182.767 107.502 182.767Z" fill="#B1C2D9"/>
</g>
<line y1="-2" x2="24.4152" y2="-2" transform="matrix(-0.925323 0.379181 -0.38554 -0.922691 35.8359 134.424)" stroke="white" stroke-width="4"/>
<line x1="103" y1="20" x2="103" y2="1" stroke="white" stroke-width="4"/>
</svg>
