<svg width="60" height="11" viewBox="0 0 60 11" fill="none" xmlns="http://www.w3.org/2000/svg">
<path d="M2.68571 8.222C2.78838 8.23133 2.90505 8.24067 3.03571 8.25C3.17571 8.25 3.33905 8.25 3.52571 8.25C4.61771 8.25 5.42505 7.97467 5.94771 7.424C6.47971 6.87333 6.74571 6.11267 6.74571 5.142C6.74571 4.12467 6.49371 3.35467 5.98971 2.832C5.48571 2.30933 4.68771 2.048 3.59571 2.048C3.44638 2.048 3.29238 2.05267 3.13371 2.062C2.97505 2.062 2.82571 2.07133 2.68571 2.09V8.222ZM8.99971 5.142C8.99971 5.982 8.86905 6.71467 8.60771 7.34C8.34638 7.96533 7.97305 8.48333 7.48771 8.894C7.01171 9.30467 6.42838 9.61267 5.73771 9.818C5.04705 10.0233 4.27238 10.126 3.41371 10.126C3.02171 10.126 2.56438 10.1073 2.04171 10.07C1.51905 10.042 1.00571 9.97667 0.501714 9.874V0.424C1.00571 0.330667 1.52838 0.27 2.06971 0.242C2.62038 0.204666 3.09171 0.186 3.48371 0.186C4.31438 0.186 5.06571 0.279333 5.73771 0.465999C6.41905 0.652666 7.00238 0.946666 7.48771 1.348C7.97305 1.74933 8.34638 2.26267 8.60771 2.888C8.86905 3.51333 8.99971 4.26467 8.99971 5.142ZM17.6919 0.298V2.16H14.7659V10H12.5819V2.16H9.65585V0.298H17.6919ZM29.6547 0.298V2.16H26.7287V10H24.5447V2.16H21.6187V0.298H29.6547ZM32.5642 5.142C32.5642 5.618 32.6202 6.04733 32.7322 6.43C32.8536 6.81267 33.0216 7.144 33.2362 7.424C33.4602 7.69467 33.7309 7.90467 34.0482 8.054C34.3656 8.20333 34.7296 8.278 35.1402 8.278C35.5416 8.278 35.9009 8.20333 36.2182 8.054C36.5449 7.90467 36.8156 7.69467 37.0302 7.424C37.2542 7.144 37.4222 6.81267 37.5342 6.43C37.6556 6.04733 37.7162 5.618 37.7162 5.142C37.7162 4.666 37.6556 4.23667 37.5342 3.854C37.4222 3.462 37.2542 3.13067 37.0302 2.86C36.8156 2.58 36.5449 2.36533 36.2182 2.216C35.9009 2.06667 35.5416 1.992 35.1402 1.992C34.7296 1.992 34.3656 2.07133 34.0482 2.23C33.7309 2.37933 33.4602 2.594 33.2362 2.874C33.0216 3.14467 32.8536 3.476 32.7322 3.868C32.6202 4.25067 32.5642 4.67533 32.5642 5.142ZM39.9702 5.142C39.9702 5.97267 39.8442 6.70533 39.5922 7.34C39.3496 7.96533 39.0136 8.49267 38.5842 8.922C38.1549 9.342 37.6416 9.65933 37.0442 9.874C36.4562 10.0887 35.8216 10.196 35.1402 10.196C34.4776 10.196 33.8522 10.0887 33.2642 9.874C32.6762 9.65933 32.1629 9.342 31.7242 8.922C31.2856 8.49267 30.9402 7.96533 30.6882 7.34C30.4362 6.70533 30.3102 5.97267 30.3102 5.142C30.3102 4.31133 30.4409 3.58333 30.7022 2.958C30.9636 2.32333 31.3136 1.79133 31.7522 1.362C32.2002 0.932666 32.7136 0.610666 33.2922 0.395999C33.8802 0.181333 34.4962 0.0739993 35.1402 0.0739993C35.8029 0.0739993 36.4282 0.181333 37.0162 0.395999C37.6042 0.610666 38.1176 0.932666 38.5562 1.362C38.9949 1.79133 39.3402 2.32333 39.5922 2.958C39.8442 3.58333 39.9702 4.31133 39.9702 5.142ZM45.5848 10.196C44.9034 10.196 44.3154 10.1027 43.8208 9.916C43.3261 9.72 42.9154 9.454 42.5888 9.118C42.2714 8.77267 42.0334 8.36667 41.8748 7.9C41.7254 7.424 41.6508 6.90133 41.6508 6.332V0.298H43.8348V6.15C43.8348 6.542 43.8768 6.878 43.9608 7.158C44.0541 7.42867 44.1754 7.65267 44.3248 7.83C44.4834 7.998 44.6701 8.11933 44.8848 8.194C45.1088 8.26867 45.3514 8.306 45.6128 8.306C46.1448 8.306 46.5741 8.14267 46.9008 7.816C47.2368 7.48933 47.4048 6.934 47.4048 6.15V0.298H49.5888V6.332C49.5888 6.90133 49.5094 7.424 49.3508 7.9C49.1921 8.376 48.9494 8.78667 48.6228 9.132C48.2961 9.468 47.8808 9.72933 47.3768 9.916C46.8728 10.1027 46.2754 10.196 45.5848 10.196ZM54.5312 0.186C55.9872 0.186 57.1025 0.447333 57.8772 0.969999C58.6519 1.48333 59.0392 2.286 59.0392 3.378C59.0392 4.05933 58.8805 4.61467 58.5632 5.044C58.2552 5.464 57.8072 5.79533 57.2192 6.038C57.4152 6.28067 57.6205 6.56067 57.8352 6.878C58.0499 7.186 58.2599 7.51267 58.4652 7.858C58.6799 8.194 58.8852 8.54867 59.0812 8.922C59.2772 9.286 59.4592 9.64533 59.6272 10H57.1772C56.9999 9.68267 56.8179 9.36067 56.6312 9.034C56.4539 8.70733 56.2672 8.39 56.0712 8.082C55.8845 7.774 55.6979 7.48467 55.5112 7.214C55.3245 6.934 55.1379 6.682 54.9512 6.458H53.8732V10H51.6892V0.438C52.1652 0.344666 52.6552 0.279333 53.1592 0.242C53.6725 0.204666 54.1299 0.186 54.5312 0.186ZM54.6572 2.048C54.4985 2.048 54.3539 2.05267 54.2232 2.062C54.1019 2.07133 53.9852 2.08067 53.8732 2.09V4.722H54.4892C55.3105 4.722 55.8985 4.61933 56.2532 4.414C56.6079 4.20867 56.7852 3.85867 56.7852 3.364C56.7852 2.888 56.6032 2.552 56.2392 2.356C55.8845 2.15067 55.3572 2.048 54.6572 2.048Z" fill="#12263F"/>
</svg>
