<svg width="78" height="78" viewBox="0 0 78 78" fill="none" xmlns="http://www.w3.org/2000/svg">
<path d="M74.7864 35.2956C74.4349 33.6823 73.4759 32.2372 72.0813 31.2277L68.9854 28.9899C67.7946 28.13 66.3644 27.657 64.9474 27.657C63.0068 27.657 61.2794 28.5057 60.212 29.9845L58.1686 32.8092C57.6695 33.4953 57.6265 34.3385 57.8957 35.0807C57.1068 35.0713 56.3104 35.376 55.8355 36.0304L36.0266 63.4275C35.5293 64.1154 35.4845 64.9642 35.7593 65.7082C35.6303 65.7363 35.5088 65.7718 35.4246 65.8167L35.3237 65.7438L35.333 65.8671C35.0507 66.0391 34.3665 66.5831 34.46 67.7553L35.0937 75.8856C35.148 76.5848 35.4789 77.1831 36.0229 77.5775C36.4042 77.8505 36.8604 78 37.3427 78C37.5502 78 37.7652 77.972 37.9671 77.9159L45.6675 75.8483C46.4527 75.637 47.0042 75.1005 47.1575 74.3957L47.2528 74.3695L47.1724 74.3153C47.1761 74.2929 47.1705 74.2723 47.1724 74.2536C47.3481 74.2929 47.5239 74.3358 47.7052 74.3358C48.496 74.3358 49.2382 73.9563 49.6981 73.3189L69.507 45.9236C69.894 45.3945 70.0473 44.7421 69.9407 44.0934C69.9183 43.9569 69.8435 43.841 69.8024 43.7139C69.8136 43.7139 69.8285 43.7195 69.8416 43.7195C70.6324 43.7195 71.3765 43.34 71.8364 42.7006L73.8797 39.8796C74.8238 38.5728 75.1453 36.9483 74.7864 35.2956ZM57.9237 38.0662L61.2047 40.4423L42.1996 67.3646L38.6158 64.7716L57.9237 38.0662ZM37.9185 74.9565L37.5016 69.6229L42.981 73.5843L37.9185 74.9565ZM47.6117 71.2737L44.4748 69.0022L63.4798 42.0818L66.9234 44.5738L47.6117 71.2737ZM71.5447 38.1821L69.75 40.661L60.7541 34.1553L62.547 31.6764C63.4929 30.3715 65.7269 30.2051 67.2898 31.3305L70.3875 33.5683C72.014 34.746 72.5318 36.8137 71.5447 38.1821Z" fill="#2C7BE5"/>
<path d="M6.42351 27.0401H21.1344C22.8805 27.0401 24.2994 25.6211 24.2994 23.8769V3.35383H56.6955V28.4982H60.0531V3.16315C60.0531 1.41706 58.6323 0 56.888 0H24.1087C23.0487 0 21.8354 0.491671 21.0035 1.23572C20.7698 1.41332 20.5679 1.61522 20.3866 1.85452L4.30539 23.1665C3.58939 24.1125 3.06967 25.6623 3.06967 26.8512V70.8025C3.06967 72.5505 4.4886 73.9657 6.23282 73.9657H31.9773V70.61H6.42351V27.0401ZM20.9437 6.68336V23.6843H8.11351L20.9437 6.68336Z" fill="#6E84A3"/>
</svg>
