<svg width="308" height="84" viewBox="0 0 308 84" fill="none" xmlns="http://www.w3.org/2000/svg">
<path d="M112.39 28.3043L120.739 28.3494C125.102 28.3494 128.939 29.9291 132.249 33.0885C135.558 36.2178 137.213 40.0843 137.213 44.688C137.213 49.2616 135.589 53.1883 132.339 56.4681C129.119 59.7478 125.208 61.3877 120.604 61.3877H112.344C110.509 61.3877 109.366 61.0116 108.914 60.2594C108.553 59.6275 108.373 58.6646 108.373 57.3708V32.2761C108.373 31.5539 108.388 31.0274 108.418 30.6964C108.478 30.3654 108.628 29.9742 108.869 29.5229C109.29 28.7105 110.464 28.3043 112.39 28.3043ZM120.739 53.3989C122.906 53.3989 124.862 52.6016 126.607 51.0068C128.352 49.382 129.225 47.3509 129.225 44.9137C129.225 42.4764 128.367 40.4454 126.652 38.8205C124.967 37.1656 122.981 36.3382 120.694 36.3382H116.361V53.3989H120.739Z" fill="#283E59"/>
<path d="M139.629 28.3043H164.724C165.687 28.3043 166.394 28.4246 166.845 28.6653C167.297 28.876 167.598 29.222 167.748 29.7034C167.899 30.1848 167.974 30.8167 167.974 31.5991C167.974 32.3814 167.899 33.0133 167.748 33.4947C167.598 33.946 167.342 34.262 166.981 34.4425C166.439 34.7133 165.672 34.8487 164.679 34.8487H156.058V57.5513C156.058 58.2434 156.028 58.7549 155.968 59.0859C155.938 59.4169 155.803 59.808 155.562 60.2594C155.351 60.6806 154.96 60.9815 154.388 61.162C153.817 61.3426 153.064 61.4328 152.132 61.4328C151.199 61.4328 150.447 61.3426 149.875 61.162C149.333 60.9815 148.942 60.6806 148.701 60.2594C148.491 59.808 148.355 59.4169 148.295 59.0859C148.265 58.7248 148.25 58.1982 148.25 57.5062V34.8487H139.584C138.621 34.8487 137.914 34.7434 137.463 34.5328C137.012 34.2921 136.711 33.931 136.56 33.4496C136.41 32.9681 136.335 32.3363 136.335 31.5539C136.335 30.7716 136.41 30.1548 136.56 29.7034C136.711 29.222 136.967 28.891 137.328 28.7105C137.869 28.4397 138.637 28.3043 139.629 28.3043Z" fill="#283E59"/>
<path d="M184.059 28.3043H209.153C210.116 28.3043 210.823 28.4246 211.275 28.6653C211.726 28.876 212.027 29.222 212.177 29.7034C212.328 30.1848 212.403 30.8167 212.403 31.5991C212.403 32.3814 212.328 33.0133 212.177 33.4947C212.027 33.946 211.771 34.262 211.41 34.4425C210.868 34.7133 210.101 34.8487 209.108 34.8487H200.487V57.5513C200.487 58.2434 200.457 58.7549 200.397 59.0859C200.367 59.4169 200.232 59.808 199.991 60.2594C199.78 60.6806 199.389 60.9815 198.818 61.162C198.246 61.3426 197.494 61.4328 196.561 61.4328C195.628 61.4328 194.876 61.3426 194.304 61.162C193.762 60.9815 193.371 60.6806 193.131 60.2594C192.92 59.808 192.785 59.4169 192.724 59.0859C192.694 58.7248 192.679 58.1982 192.679 57.5062V34.8487H184.013C183.051 34.8487 182.343 34.7434 181.892 34.5328C181.441 34.2921 181.14 33.931 180.989 33.4496C180.839 32.9681 180.764 32.3363 180.764 31.5539C180.764 30.7716 180.839 30.1548 180.989 29.7034C181.14 29.222 181.396 28.891 181.757 28.7105C182.298 28.4397 183.066 28.3043 184.059 28.3043Z" fill="#283E59"/>
<path d="M227.743 27.9432C232.196 27.9432 236.063 29.553 239.342 32.7725C242.622 35.9921 244.262 39.994 244.262 44.7783C244.262 49.5324 242.697 53.5945 239.568 56.9646C236.439 60.3045 232.587 61.9745 228.014 61.9745C223.44 61.9745 219.544 60.3195 216.324 57.0097C213.134 53.6998 211.54 49.7581 211.54 45.1845C211.54 42.6871 211.991 40.3551 212.894 38.1887C213.796 35.9921 215 34.1567 216.505 32.6823C218.009 31.2079 219.739 30.0494 221.695 29.2069C223.651 28.3644 225.667 27.9432 227.743 27.9432ZM219.529 44.9588C219.529 47.6368 220.386 49.8183 222.101 51.5033C223.846 53.1582 225.787 53.9857 227.924 53.9857C230.06 53.9857 231.986 53.1733 233.701 51.5484C235.416 49.9236 236.273 47.7421 236.273 45.004C236.273 42.2658 235.401 40.0693 233.656 38.4143C231.94 36.7594 230.015 35.932 227.878 35.932C225.742 35.932 223.816 36.7745 222.101 38.4595C220.386 40.1144 219.529 42.2808 219.529 44.9588Z" fill="#283E59"/>
<path d="M268.833 29.568C269.134 29.0866 269.57 28.7556 270.142 28.5751C270.713 28.3945 271.421 28.3043 272.263 28.3043C273.136 28.3043 273.828 28.3795 274.339 28.5299C274.851 28.6804 275.242 28.8609 275.513 29.0715C275.784 29.2822 275.979 29.5981 276.099 30.0194C276.28 30.5309 276.37 31.3132 276.37 32.3663V45.9969C276.37 49.9687 275.137 53.5795 272.669 56.8291C271.466 58.3637 269.916 59.6124 268.02 60.5753C266.125 61.5081 264.018 61.9745 261.702 61.9745C259.415 61.9745 257.324 61.493 255.428 60.5302C253.562 59.5673 252.043 58.3035 250.869 56.7389C248.432 53.5494 247.213 49.9386 247.213 45.9066V32.3212C247.213 31.5991 247.229 31.0725 247.259 30.7415C247.319 30.3804 247.469 29.9742 247.71 29.5229C247.951 29.0715 248.357 28.7556 248.929 28.5751C249.5 28.3945 250.268 28.3043 251.23 28.3043C252.193 28.3043 252.961 28.3945 253.532 28.5751C254.104 28.7556 254.495 29.0715 254.706 29.5229C255.067 30.2149 255.247 31.1628 255.247 32.3663V45.9066C255.247 47.7421 255.699 49.4873 256.601 51.1422C257.053 51.9847 257.73 52.6617 258.632 53.1733C259.535 53.6848 260.603 53.9406 261.837 53.9406C264.034 53.9406 265.673 53.1281 266.757 51.5033C267.84 49.8785 268.381 47.9979 268.381 45.8615V32.0504C268.381 30.8769 268.532 30.0494 268.833 29.568Z" fill="#283E59"/>
<path d="M305.283 55.8362C305.734 56.9194 305.96 57.7017 305.96 58.1832C305.96 59.3266 305.027 60.2894 303.161 61.0718C302.198 61.493 301.416 61.7037 300.814 61.7037C300.243 61.7037 299.761 61.5683 299.37 61.2974C299.009 60.9966 298.738 60.6957 298.558 60.3948C298.257 59.8231 297.083 57.1 295.037 52.2254L293.638 52.3157H287.951V57.4159C287.951 58.108 287.921 58.6345 287.861 58.9956C287.831 59.3266 287.695 59.7177 287.455 60.1691C287.033 60.9815 285.86 61.3877 283.934 61.3877C281.828 61.3877 280.594 60.8311 280.233 59.7177C280.053 59.2062 279.962 58.4239 279.962 57.3708V32.3212C279.962 31.6291 279.977 31.1176 280.007 30.7866C280.068 30.4256 280.218 30.0194 280.459 29.568C280.88 28.7556 282.054 28.3494 283.979 28.3494H293.728C296.376 28.3494 298.949 29.3123 301.446 31.238C302.65 32.1708 303.643 33.4345 304.425 35.0293C305.207 36.624 305.599 38.3993 305.599 40.3551C305.599 43.7552 304.47 46.5536 302.214 48.7501C302.876 50.3448 303.899 52.7069 305.283 55.8362ZM287.951 44.3269H293.728C294.601 44.3269 295.473 43.996 296.346 43.334C297.219 42.672 297.655 41.6791 297.655 40.3551C297.655 39.0312 297.219 38.0382 296.346 37.3763C295.473 36.6842 294.571 36.3382 293.638 36.3382H287.951V44.3269Z" fill="#283E59"/>
<path d="M41.0156 29.6789C29.2195 42.9023 21.5742 59.2922 19.0312 76.8305L18.3914 81.1945L20.9835 81.5719L21.6234 77.2078C24.1007 60.1781 31.5328 44.2641 42.9843 31.4344L41.0156 29.6789ZM57.7499 78.75H61.6874V81.375H57.7499V78.75Z" fill="#2C7BE5"/>
<path d="M77.4376 36.75H72.1876V22.3125C72.1876 19.4086 69.8415 17.0625 66.9376 17.0625C64.936 17.0625 63.0985 18.2109 62.2126 20.0156C61.1954 19.0641 60.1126 18.1617 58.9806 17.3414C62.8196 14.7164 66.8392 12.4031 71.0392 10.418L69.0048 14.4867L71.3509 15.668L75.7642 6.85781L66.954 2.46094L65.7728 4.80703L71.1376 7.49766C66.0681 9.81094 61.2118 12.5836 56.6509 15.7828C55.0431 14.7984 53.3696 13.9289 51.6306 13.207C53.8946 10.6477 55.1415 7.35 55.1251 3.9375V2.625H53.8126C50.1048 2.60859 46.5446 4.08516 43.9196 6.72656L41.6884 8.95781L30.9751 4.67578C29.515 4.08516 27.8415 4.42969 26.7259 5.54531L22.7884 9.48281L27.497 12.0914C8.81026 17.9484 -1.60771 37.8328 4.24932 56.5195C6.2837 63.0328 10.172 68.8242 15.422 73.1883L17.0954 71.1703C15.1267 69.5297 13.3548 67.6594 11.8126 65.625H12.0423C14.8149 65.625 17.0626 63.3773 17.0626 60.6047C17.0626 59.9648 17.3087 59.3578 17.7681 58.9148L20.836 55.8469C21.7876 54.9117 22.3126 53.632 22.3126 52.2867V51.4172C22.3126 50.0883 21.7876 48.8086 20.836 47.857L19.2939 46.3148C17.3251 44.3625 14.1587 44.3625 12.1899 46.3148L11.9603 46.5445C11.5173 47.0039 10.8939 47.25 10.2704 47.25H5.28292C5.26651 46.807 5.25011 46.3805 5.25011 45.9375C5.25011 44.625 5.33214 43.3125 5.4962 42H10.336C12.6001 42 14.4376 40.1625 14.4376 37.8984C14.4376 36.8156 14.011 35.7656 13.2399 34.9945L8.99073 30.7453C13.4368 22.2141 21.4103 16.0617 30.7946 13.9289L34.6009 16.0453L26.2501 24.3961V28.2516L20.6884 26.0203L14.7329 31.9758L22.6243 35.1258L25.7743 43.0172L31.7298 37.0617L29.4985 31.5H33.354L41.6884 23.1656L48.2509 34.9781L52.1884 31.0406C53.304 29.925 53.6485 28.2516 53.0579 26.7914L48.7759 16.0781L49.6126 15.2414C51.2368 15.8484 52.8118 16.6031 54.3212 17.4563C53.7962 17.85 53.2712 18.2602 52.7462 18.6703L54.3704 20.7375C55.1415 20.1305 55.9126 19.5398 56.7165 18.9656C58.5048 20.2125 60.1782 21.6234 61.6876 23.182V36.75H56.4376C54.272 36.75 52.5001 38.5219 52.5001 40.6875V72.1875C52.5001 73.1883 52.8774 74.1398 53.5501 74.8617C51.9423 75.7149 50.2853 76.4367 48.5626 77.0274V75.8953C48.5626 74.8453 48.1525 73.8445 47.4142 73.1063L45.0024 70.7109C44.7564 70.4649 44.6251 70.1367 44.6251 69.7758V68.25C44.6251 67.5281 45.2157 66.9375 45.9376 66.9375C48.1032 66.9375 49.8751 65.1656 49.8751 63V59.0625C49.8751 56.8969 48.1032 55.125 45.9376 55.125H43.0829C42.0329 55.125 41.0321 55.5352 40.2939 56.2734L33.961 62.6227C33.715 62.8688 33.3868 63 33.0259 63H31.5001C29.3345 63 27.5626 64.7719 27.5626 66.9375V69.7922C27.5626 70.8422 27.9728 71.843 28.711 72.5813L29.7939 73.6641C30.04 73.9102 30.1712 74.2383 30.1712 74.5992V77.8148C28.547 77.4211 26.972 76.8961 25.4298 76.2563L24.4126 78.6844C34.9454 83.032 46.922 82.0805 56.6345 76.125H77.4376C79.6032 76.125 81.3751 74.3531 81.3751 72.1875V40.6875C81.3751 38.5219 79.6032 36.75 77.4376 36.75ZM10.2704 49.875C11.5993 49.875 12.879 49.35 13.8306 48.3984L14.0603 48.1688C14.9954 47.2336 16.5212 47.2336 17.4564 48.1688L18.9985 49.7109C19.4579 50.1539 19.704 50.7773 19.704 51.4008V52.2703C19.704 52.9102 19.4579 53.5172 18.9985 53.9602L15.9142 57.0445C14.9626 57.9797 14.4376 59.2594 14.4376 60.6047C14.4376 61.9336 13.3548 63 12.0423 63H10.0243C7.5962 58.9969 6.03761 54.518 5.47979 49.875H10.2704ZM11.386 36.8648C11.9603 37.4391 11.9603 38.3742 11.386 38.9484C11.1071 39.2273 10.7298 39.375 10.3524 39.375H5.90636C6.33292 37.2914 6.95636 35.2406 7.79307 33.2719L11.386 36.8648ZM26.7259 38.3578L24.6259 33.1242L19.3923 31.0242L21.3118 29.1047L26.5454 31.2047L28.6454 36.4383L26.7259 38.3578ZM49.1696 11.9766L45.7079 15.4383L50.6298 27.7594C50.8267 28.2516 50.7118 28.8094 50.3345 29.1703L48.8579 30.6469L42.2954 18.8344L32.2712 28.875H28.8751V25.4789L38.9157 15.4383L31.2704 11.1891L31.254 11.1398C31.2376 11.1398 31.2212 11.1398 31.2048 11.1563L27.1032 8.87578L28.5798 7.39922C28.9571 7.02188 29.515 6.90703 29.9907 7.10391L42.3118 12.0258L45.7735 8.58047C47.5618 6.79219 49.8915 5.64375 52.4181 5.33203C52.1064 7.84219 50.9743 10.1883 49.1696 11.9766ZM45.9376 77.7984C41.6392 78.8484 37.1767 79.0289 32.8126 78.3399V74.5992C32.8126 73.5492 32.4025 72.5484 31.6642 71.8102L30.5814 70.7273C30.3353 70.4813 30.204 70.1531 30.204 69.7922V66.9375C30.204 66.2156 30.7946 65.625 31.5165 65.625H33.0587C34.1087 65.625 35.1095 65.2148 35.8478 64.4766L42.1806 58.1438C42.4267 57.8977 42.7548 57.7664 43.1157 57.7664H45.9376C46.6595 57.7664 47.2501 58.357 47.2501 59.0789V63.0164C47.2501 63.7383 46.6595 64.3289 45.9376 64.3289C43.772 64.3289 42.0001 66.1008 42.0001 68.2664V69.8086C42.0001 70.8586 42.4103 71.8594 43.1485 72.5977L45.5439 74.993C45.79 75.2391 45.9212 75.5672 45.9212 75.9281V77.7984H45.9376ZM64.3126 22.3125C64.3126 20.8688 65.4939 19.6875 66.9376 19.6875C68.3814 19.6875 69.5626 20.8688 69.5626 22.3125V36.75H64.3126V22.3125ZM78.7501 72.1875C78.7501 72.9094 78.1595 73.5 77.4376 73.5H56.4376C55.7157 73.5 55.1251 72.9094 55.1251 72.1875V40.6875C55.1251 39.9656 55.7157 39.375 56.4376 39.375H77.4376C78.1595 39.375 78.7501 39.9656 78.7501 40.6875V72.1875ZM73.5001 78.75H77.4376V81.375H73.5001V78.75Z" fill="#2C7BE5"/>
<path d="M59.0625 42H61.6875V70.875H59.0625V42ZM65.625 42H68.25V70.875H65.625V42ZM72.1875 42H74.8125V70.875H72.1875V42ZM39.375 43.3125V44.0836L36.2086 47.25C35.7164 47.7422 35.4375 48.4148 35.4375 49.1039V49.875C35.4375 51.3188 36.6188 52.5 38.0625 52.5H41.4586C42.1477 52.5 42.8203 52.2211 43.3125 51.7289L45.1664 49.875H47.25C48.6938 49.875 49.875 48.6938 49.875 47.25V43.3125C49.875 41.8687 48.6938 40.6875 47.25 40.6875H42C40.5563 40.6875 39.375 41.8687 39.375 43.3125ZM42 44.0836V43.3125H47.25V47.25H45.1664C44.4773 47.25 43.8047 47.5289 43.3125 48.0211L41.4586 49.875H38.0625V49.1039L41.2289 45.9375C41.7211 45.4453 42 44.7727 42 44.0836Z" fill="#2C7BE5"/>
</svg>
