<svg width="79" height="80" viewBox="0 0 79 80" fill="none" xmlns="http://www.w3.org/2000/svg">
<path d="M74.8192 34.75H69.5692V20.3125C69.5692 17.4086 67.2231 15.0625 64.3192 15.0625C62.3176 15.0625 60.4801 16.2109 59.5942 18.0156C58.577 17.0641 57.4942 16.1617 56.3622 15.3414C60.2012 12.7164 64.2208 10.4031 68.4208 8.41797L66.3864 12.4867L68.7325 13.668L73.1458 4.85781L64.3356 0.460938L63.1544 2.80703L68.5192 5.49766C63.4497 7.81094 58.5934 10.5836 54.0325 13.7828C52.4247 12.7984 50.7512 11.9289 49.0122 11.207C51.2762 8.64766 52.5231 5.35 52.5067 1.9375V0.625H51.1942C47.4864 0.608594 43.9262 2.08516 41.3012 4.72656L39.07 6.95781L28.3567 2.67578C26.8965 2.08516 25.2231 2.42969 24.1075 3.54531L20.17 7.48281L24.8786 10.0914C6.19185 15.9484 -4.22612 35.8328 1.63092 54.5195C3.66529 61.0328 7.55357 66.8242 12.8036 71.1883L14.477 69.1703C12.5083 67.5297 10.7364 65.6594 9.1942 63.625H9.42389C12.1965 63.625 14.4442 61.3773 14.4442 58.6047C14.4442 57.9648 14.6903 57.3578 15.1497 56.9148L18.2176 53.8469C19.1692 52.9117 19.6942 51.632 19.6942 50.2867V49.4172C19.6942 48.0883 19.1692 46.8086 18.2176 45.857L16.6754 44.3148C14.7067 42.3625 11.5403 42.3625 9.57154 44.3148L9.34185 44.5445C8.89888 45.0039 8.27545 45.25 7.65201 45.25H2.66451C2.6481 44.807 2.6317 44.3805 2.6317 43.9375C2.6317 42.625 2.71373 41.3125 2.87779 40H7.71763C9.9817 40 11.8192 38.1625 11.8192 35.8984C11.8192 34.8156 11.3926 33.7656 10.6215 32.9945L6.37232 28.7453C10.8184 20.2141 18.7919 14.0617 28.1762 11.9289L31.9825 14.0453L23.6317 22.3961V26.2516L18.07 24.0203L12.1145 29.9758L20.0059 33.1258L23.1559 41.0172L29.1114 35.0617L26.8801 29.5H30.7356L39.07 21.1656L45.6325 32.9781L49.57 29.0406C50.6856 27.925 51.0301 26.2516 50.4395 24.7914L46.1575 14.0781L46.9942 13.2414C48.6184 13.8484 50.1934 14.6031 51.7028 15.4563C51.1778 15.85 50.6528 16.2602 50.1278 16.6703L51.752 18.7375C52.5231 18.1305 53.2942 17.5398 54.0981 16.9656C55.8864 18.2125 57.5598 19.6234 59.0692 21.182V34.75H53.8192C51.6536 34.75 49.8817 36.5219 49.8817 38.6875V70.1875C49.8817 71.1883 50.259 72.1398 50.9317 72.8617C49.3239 73.7149 47.6669 74.4367 45.9442 75.0274V73.8953C45.9442 72.8453 45.534 71.8445 44.7958 71.1063L42.384 68.7109C42.1379 68.4649 42.0067 68.1367 42.0067 67.7758V66.25C42.0067 65.5281 42.5973 64.9375 43.3192 64.9375C45.4848 64.9375 47.2567 63.1656 47.2567 61V57.0625C47.2567 54.8969 45.4848 53.125 43.3192 53.125H40.4645C39.4145 53.125 38.4137 53.5352 37.6754 54.2734L31.3426 60.6227C31.0965 60.8688 30.7684 61 30.4075 61H28.8817C26.7161 61 24.9442 62.7719 24.9442 64.9375V67.7922C24.9442 68.8422 25.3544 69.843 26.0926 70.5813L27.1754 71.6641C27.4215 71.9102 27.5528 72.2383 27.5528 72.5992V75.8148C25.9286 75.4211 24.3536 74.8961 22.8114 74.2563L21.7942 76.6844C32.327 81.032 44.3036 80.0805 54.0161 74.125H74.8192C76.9848 74.125 78.7567 72.3531 78.7567 70.1875V38.6875C78.7567 36.5219 76.9848 34.75 74.8192 34.75ZM7.65201 47.875C8.98092 47.875 10.2606 47.35 11.2122 46.3984L11.4419 46.1688C12.377 45.2336 13.9028 45.2336 14.8379 46.1688L16.3801 47.7109C16.8395 48.1539 17.0856 48.7773 17.0856 49.4008V50.2703C17.0856 50.9102 16.8395 51.5172 16.3801 51.9602L13.2958 55.0445C12.3442 55.9797 11.8192 57.2594 11.8192 58.6047C11.8192 59.9336 10.7364 61 9.42389 61H7.40592C4.97779 56.9969 3.4192 52.518 2.86138 47.875H7.65201ZM8.76764 34.8648C9.34185 35.4391 9.34185 36.3742 8.76764 36.9484C8.48873 37.2273 8.11138 37.375 7.73404 37.375H3.28795C3.71451 35.2914 4.33795 33.2406 5.17467 31.2719L8.76764 34.8648ZM24.1075 36.3578L22.0075 31.1242L16.7739 29.0242L18.6934 27.1047L23.927 29.2047L26.027 34.4383L24.1075 36.3578ZM46.5512 9.97656L43.0895 13.4383L48.0114 25.7594C48.2083 26.2516 48.0934 26.8094 47.7161 27.1703L46.2395 28.6469L39.677 16.8344L29.6528 26.875H26.2567V23.4789L36.2973 13.4383L28.652 9.18906L28.6356 9.13984C28.6192 9.13984 28.6028 9.13984 28.5864 9.15625L24.4848 6.87578L25.9614 5.39922C26.3387 5.02188 26.8965 4.90703 27.3723 5.10391L39.6934 10.0258L43.1551 6.58047C44.9434 4.79219 47.2731 3.64375 49.7997 3.33203C49.4879 5.84219 48.3559 8.18828 46.5512 9.97656ZM43.3192 75.7984C39.0208 76.8484 34.5583 77.0289 30.1942 76.3399V72.5992C30.1942 71.5492 29.784 70.5484 29.0458 69.8102L27.9629 68.7273C27.7169 68.4813 27.5856 68.1531 27.5856 67.7922V64.9375C27.5856 64.2156 28.1762 63.625 28.8981 63.625H30.4403C31.4903 63.625 32.4911 63.2148 33.2294 62.4766L39.5622 56.1438C39.8083 55.8977 40.1364 55.7664 40.4973 55.7664H43.3192C44.0411 55.7664 44.6317 56.357 44.6317 57.0789V61.0164C44.6317 61.7383 44.0411 62.3289 43.3192 62.3289C41.1536 62.3289 39.3817 64.1008 39.3817 66.2664V67.8086C39.3817 68.8586 39.7919 69.8594 40.5301 70.5977L42.9254 72.993C43.1715 73.2391 43.3028 73.5672 43.3028 73.9281V75.7984H43.3192ZM61.6942 20.3125C61.6942 18.8688 62.8755 17.6875 64.3192 17.6875C65.7629 17.6875 66.9442 18.8688 66.9442 20.3125V34.75H61.6942V20.3125ZM76.1317 70.1875C76.1317 70.9094 75.5411 71.5 74.8192 71.5H53.8192C53.0973 71.5 52.5067 70.9094 52.5067 70.1875V38.6875C52.5067 37.9656 53.0973 37.375 53.8192 37.375H74.8192C75.5411 37.375 76.1317 37.9656 76.1317 38.6875V70.1875ZM70.8817 76.75H74.8192V79.375H70.8817V76.75Z" fill="#2C7BE5"/>
</svg>
